<svg xmlns="http://www.w3.org/2000/svg" viewBox="0 0 88 18"><path fill="inherit" d="M9.907 14.216h2.707c.208 1.048.841 1.612 2.247 1.612.84 0 1.336-.391 1.336-1.002 0-.633-1.037-.818-2.28-1.117-1.729-.403-3.79-1.049-3.79-3.26 0-2.166 1.9-3.664 4.596-3.664 2.926 0 4.435 1.463 4.596 3.698h-2.661c-.173-1.048-.68-1.578-1.958-1.578-.795 0-1.29.403-1.29 1.014 0 .725 1.14.887 2.453 1.175 1.693.391 3.629.979 3.629 3.214 0 2.223-1.763 3.629-4.62 3.629-3.11 0-4.757-1.705-4.965-3.721zM22.925 17.73c-1.694-.127-2.005-.922-2.016-2.408V11.98h-.922v-1.866h.922V8.582l3.007-1.301v2.845h1.198v1.866h-1.245v3.353c0 .276.15.414.438.414h.772v1.97h-2.154zM25.551 13.928c0-2.443 1.648-3.998 4.401-3.998 2.742 0 4.355 1.544 4.355 3.998 0 2.442-1.648 3.997-4.424 3.997-2.742 0-4.332-1.532-4.332-3.997zm5.645.069v-.15c0-1.36-.438-1.947-1.279-1.947-.817 0-1.255.6-1.255 1.947v.15c0 1.36.414 1.935 1.255 1.935s1.28-.587 1.28-1.935zM35.01 13.893c0-2.43 1.647-3.974 4.273-3.974 2.339 0 3.422 1.002 3.905 2.626l-2.707.634c-.115-.6-.391-1.175-1.117-1.175-.818 0-1.221.633-1.221 1.855v.126c0 1.244.357 1.855 1.198 1.855.726 0 1.094-.472 1.198-1.233l2.73.496c-.392 1.728-1.544 2.81-3.951 2.81-2.754.012-4.309-1.474-4.309-4.02zM47.06 13.052l2.107-2.937h3.18l-2.465 2.822 2.534 4.792h-3.133l-1.452-2.788-.772.922v1.866h-3.007V6.947h3.007zM55.73 17.73c-1.693-.127-2.004-.922-2.015-2.408V11.98h-.922v-1.866h.922V8.582l3.007-1.301v2.845h1.198v1.866h-1.256v3.353c0 .276.15.414.438.414h.772v1.97H55.73zM62.461 13.974l1.175-3.86h2.5l1.14 3.894 1.015-3.893h2.488l-2.465 7.614H65.79l-1.244-4.216-1.245 4.216h-2.534l-2.408-7.614h3.065zM74.223 9.308h-3.087v-2.28h3.087v2.28zM74.2 17.73h-3.03v-7.614h3.03v7.614zM77.751 17.73c-1.693-.127-2.004-.922-2.016-2.408V11.98h-.921v-1.866h.921V8.582l3.007-1.301v2.845h1.198v1.866h-1.244v3.353c0 .276.15.414.438.414h.772v1.97H77.75zM80.453 16.681l1.36-1.498c.61.553 1.416.968 2.246.968.495 0 .817-.161.817-.484 0-.403-.656-.518-1.543-.726-1.198-.288-2.696-.817-2.696-2.453 0-1.532 1.406-2.615 3.34-2.615 1.729 0 2.87.495 3.699 1.29 0 .069-1.256 1.451-1.256 1.451-.645-.553-1.405-.921-2.177-.921-.495 0-.772.173-.772.484 0 .403.45.483 1.417.69 1.21.289 2.868.738 2.868 2.466 0 1.567-1.451 2.627-3.41 2.627-1.797.011-2.983-.507-3.893-1.279zM7.672 9.4L0 5.45V3.997L7.638 0l.011 2.58L3.191 4.7l4.47 2.108z"></path><path fill="#218DFF" d="M7.672 12.108L.035 16.116l-.012-2.568 4.343-2.132L.012 9.331 0 6.716l7.66 3.952z"></path></svg>